# xmcd
# 
# Track frame offsets:
#     150
#     23700
#     45952
#     71612
#     96450
#     117812
#     138637
#     157437
#     178537
# 
# Disc length: 2647
# 
# Revision: 2
# Processed by: cddbd v1.5.2PL0 Copyright (c) Steve Scherf et al.
# Submitted via: fre:ac v1.0.31
# 
DISCID=7b0a5509
DTITLE=岡村孝子 - Liberté
DYEAR=1987
DGENRE=JPop
TTITLE0=リベルテ
TTITLE1=迷路
TTITLE2=電車
TTITLE3=ついてない
TTITLE4=五月の晴れた空
TTITLE5=秋の日の夕暮れ
TTITLE6=私はここにいる
TTITLE7=夢をあきらめないで
TTITLE8=月が泣いた夜
EXTD=YEAR: 1987
EXTT0=
EXTT1=
EXTT2=
EXTT3=
EXTT4=
EXTT5=
EXTT6=
EXTT7=
EXTT8=
PLAYORDER=
